# xmcd
#
# Track frame offsets: 
#        150
#        11925
#        26290
#        45190
#        60840
#        76800
#        92550
#        111875
#        126680
#        137630
#        150155
#        166095
#        178320
#        191465
#        205040
#        219685
#        236860
#        254485
#        267845
#        284645
#        302010
#        316205
#        330475
#
# Disc length: 4574 seconds
#
# Revision: 0
# Processed by: cddbd v1.5.2PL0 Copyright (c) Steve Scherf et al.
# Submitted via: ExactAudioCopy v1.1
#
DISCID=3a11dc17
DTITLE=Various Artist - 100 Country Hits [CD3]
DYEAR=2008
DGENRE=Country
TTITLE0=Dolly Parton - Jolene
TTITLE1=Jeannie C. Riley - Harper Valley PTA
TTITLE2=Bobbie Gentry - Ode To Billie Joe
TTITLE3=Kenny Rogers - The Gambler
TTITLE4=The Nitty Gritty Dirt Band - Mr. Bojangles
TTITLE5=The Band - The Night They Drove Old Dixie Down
TTITLE6=Kris Kristofferson - Me And Bobby Mcgee
TTITLE7=Elvis Presley - Kentucky Rain
TTITLE8=Roy Orbinson - Blue Bayou
TTITLE9=Johnny Cash - Folsom Prison Blues
TTITLE10=Joe South - Games People Play
TTITLE11=Bobby Bare - Green, Green Grass Of Home
TTITLE12=Tammy Wynette - D.I.V.O.R.C.E
TTITLE13=George Jones - A Good Year For The Roses
TTITLE14=Brooks and Dunn - The Long Goodbye
TTITLE15=Tim McGraw - When The Stars Go Blue
TTITLE16=Rodney Crowell - What Kind Of Love
TTITLE17=John Denver - Annie's Song
TTITLE18=LeAnn Rimes - I Need You
TTITLE19=The Judds - Love Can Build A Bridge
TTITLE20=Tanya Tucker - What's Your Mamas Name, Child
TTITLE21=Hayseed Dixie - Strawberry Fields Forever
TTITLE22=Jerry Reed - East Bound And Down
EXTD=
EXTT0=
EXTT1=
EXTT2=
EXTT3=
EXTT4=
EXTT5=
EXTT6=
EXTT7=
EXTT8=
EXTT9=
EXTT10=
EXTT11=
EXTT12=
EXTT13=
EXTT14=
EXTT15=
EXTT16=
EXTT17=
EXTT18=
EXTT19=
EXTT20=
EXTT21=
EXTT22=
PLAYORDER=
